<?xml version="1.0" standalone="no"?>
<!DOCTYPE svg PUBLIC "-//W3C//DTD SVG 20010904//EN"
 "http://www.w3.org/TR/2001/REC-SVG-20010904/DTD/svg10.dtd">
<svg version="1.0" xmlns="http://www.w3.org/2000/svg"
 width="735.000000pt" height="430.000000pt" viewBox="0 0 735.000000 430.000000"
 preserveAspectRatio="xMidYMid meet">
<metadata>
Created by potrace 1.16, written by Peter Selinger 2001-2019
</metadata>
<g transform="translate(0.000000,430.000000) scale(0.100000,-0.100000)"
fill="#000000" stroke="none">
<path d="M2343 3971 c-24 -4 -46 -10 -50 -14 -3 -4 1 -23 10 -42 12 -26 25
-37 47 -41 37 -8 38 -17 4 -32 -19 -9 -24 -17 -20 -32 3 -11 9 -30 12 -42 l6
-21 -37 23 c-30 19 -41 21 -61 11 -14 -6 -26 -11 -28 -11 -2 0 -3 18 -2 41 0
31 -5 45 -22 59 -27 23 -28 30 -2 23 21 -6 70 21 70 37 0 14 -321 13 -357 -1
-37 -14 -44 -27 -37 -68 l7 -33 -27 17 c-18 12 -37 16 -61 12 l-35 -6 6 41 7
41 -39 -7 c-21 -3 -133 -9 -247 -12 l-208 -7 -39 -28 c-78 -56 -53 -66 162
-61 l178 4 8 31 9 32 18 -37 c11 -21 30 -42 47 -49 32 -13 32 -13 16 -42 -6
-12 -11 -36 -10 -54 l1 -33 -27 20 c-23 17 -33 19 -56 10 -37 -14 -36 -15 -36
28 0 61 -22 82 -85 82 -70 0 -204 -18 -232 -32 -12 -6 -32 -8 -44 -5 -13 4
-43 1 -66 -5 -24 -6 -46 -8 -49 -6 -2 3 3 21 11 41 37 89 18 103 -128 94 -118
-7 -190 -27 -304 -83 -94 -46 -132 -80 -161 -142 -22 -44 -8 -64 53 -77 42 -9
45 -12 31 -24 -21 -17 -21 -70 0 -100 14 -19 22 -22 53 -16 59 11 71 22 71 64
0 24 -9 52 -25 76 -30 43 -28 50 9 35 22 -8 28 -7 32 8 18 55 19 55 42 3 l23
-50 82 -3 82 -3 -23 -22 c-17 -18 -33 -23 -72 -23 -27 0 -50 -4 -50 -10 0 -5
12 -10 27 -10 l27 0 -22 -21 c-12 -11 -20 -24 -17 -29 3 -5 -10 -6 -28 -3 -25
4 -49 -3 -98 -27 -35 -18 -67 -38 -72 -44 -4 -6 -4 -29 -1 -50 5 -33 4 -38
-10 -33 -24 10 -19 -10 7 -28 20 -13 32 -13 95 -1 72 14 72 14 72 -9 0 -33 44
-110 66 -113 32 -6 39 -20 19 -42 -14 -15 -16 -28 -11 -62 l7 -43 -30 29 c-27
26 -33 28 -56 18 -36 -17 -38 -15 -31 14 18 69 -30 85 -89 30 -45 -43 -45 -75
3 -95 25 -11 32 -21 32 -42 0 -15 -5 -31 -10 -34 -6 -3 -10 -20 -10 -37 0 -26
-2 -29 -15 -18 -18 15 -20 13 -29 -16 -8 -25 16 -54 43 -54 10 0 68 11 129 25
133 30 166 31 95 3 -29 -11 -53 -26 -53 -32 0 -21 29 -53 60 -66 27 -11 29
-15 17 -29 -22 -25 -27 -47 -17 -80 9 -33 0 -40 -20 -16 -12 14 -40 21 -40 9
0 -3 10 -28 22 -55 20 -49 21 -52 5 -103 -29 -91 -23 -108 46 -130 9 -3 17
-12 17 -20 0 -39 426 -114 582 -102 40 3 107 7 148 9 97 5 167 24 185 50 20
28 19 30 -10 65 l-25 30 30 7 c16 4 36 16 44 27 15 20 15 20 38 -6 13 -15 33
-28 46 -29 27 -2 28 -9 1 -33 -20 -18 -20 -56 0 -77 4 -4 50 -1 102 8 52 8
118 15 147 15 28 0 52 3 52 8 0 4 -9 18 -19 32 l-19 24 31 11 c17 5 37 20 43
33 l11 23 17 -26 c10 -15 30 -31 46 -37 19 -6 27 -15 23 -24 -4 -12 14 -14
108 -14 141 0 136 -17 -10 -36 -56 -7 -106 -16 -111 -19 -25 -15 7 -26 70 -23
131 4 73 -18 -65 -25 -33 -2 -42 2 -50 20 -7 17 -15 21 -30 16 -11 -3 -39 -5
-63 -4 -24 0 -128 -10 -231 -24 -104 -14 -193 -25 -200 -25 -6 0 -11 -4 -11
-9 0 -36 1196 -30 1980 10 107 5 425 12 705 16 740 8 960 -8 1759 -133 23 -4
36 -2 33 3 -3 5 -45 15 -91 22 -47 7 -103 22 -123 32 -26 14 -92 26 -213 40
-289 34 -312 39 -164 34 72 -3 250 -21 395 -40 290 -39 539 -65 603 -65 41 1
41 1 15 15 -108 59 -799 209 -1034 226 -66 4 -176 17 -245 28 -69 11 -174 25
-235 31 -163 15 -700 30 -735 20 -16 -5 -42 -17 -57 -28 -24 -17 -59 -21 -250
-31 -208 -12 -300 -19 -433 -37 -51 -7 -54 -6 -41 9 20 25 -9 23 -42 -3 l-26
-21 -15 29 c-14 27 -14 31 4 47 19 17 20 17 20 0 0 -15 6 -17 38 -11 20 3 79
12 130 18 50 7 92 16 92 20 0 5 -208 7 -462 6 l-463 -3 -3 129 -3 129 728 -6
c732 -6 1302 -24 1618 -52 307 -28 485 -58 1065 -178 276 -58 456 -89 486 -85
l29 4 -29 12 c-55 23 -496 116 -841 178 -82 14 -211 41 -285 60 -138 34 -312
88 -251 78 19 -4 36 -2 40 4 8 14 130 -14 229 -52 81 -31 107 -29 43 4 -41 21
-48 33 -32 59 8 12 20 13 81 2 39 -7 74 -11 76 -8 8 8 -19 14 -201 46 -612
108 -882 128 -2099 157 -346 8 -632 17 -637 20 -5 3 -9 41 -9 85 l0 79 -55 0
c-70 0 -105 -29 -105 -85 l0 -35 -26 16 c-23 16 -28 16 -58 1 l-33 -15 5 44
c4 43 4 44 -31 59 -43 18 -197 20 -262 4 -43 -11 -43 -12 -38 -46 l6 -35 -33
17 c-26 13 -38 15 -56 6 -23 -10 -24 -9 -24 25 l0 36 -77 -7 c-234 -19 -353
-51 -439 -120 -24 -19 -25 -24 -16 -59 l11 -38 -24 16 c-27 18 -71 21 -80 6
-13 -21 -20 -8 -17 30 3 32 -1 46 -22 71 -34 40 -33 49 9 49 24 0 37 6 45 20
9 16 14 18 29 9 14 -9 31 -7 77 8 49 16 59 24 62 45 2 18 -5 30 -25 44 l-28
19 40 5 c31 4 40 10 45 28 7 30 20 27 42 -9 14 -22 25 -29 50 -29 l32 0 -29
-30 -29 -30 45 0 c24 0 103 7 174 15 116 14 132 18 152 40 26 30 29 30 36 6 8
-30 48 -49 109 -52 68 -3 84 6 40 22 l-32 11 20 25 c25 32 25 51 0 83 -26 34
-25 37 10 32 27 -4 32 0 43 27 12 32 27 42 27 17 0 -19 48 -56 73 -56 19 0 19
-1 4 -18 -23 -26 -21 -32 11 -33 l27 -1 -29 -12 -28 -13 23 -6 c36 -10 227 -8
233 2 6 8 -63 21 -115 21 -16 0 -29 5 -29 10 0 14 41 13 137 -4 59 -11 90 -12
115 -4 23 7 73 6 163 -1 72 -6 141 -12 155 -13 14 0 116 -12 228 -25 112 -13
212 -21 223 -18 11 4 41 0 67 -9 33 -11 144 -20 382 -31 785 -37 1146 -69
1432 -125 167 -33 178 -34 178 -22 0 5 -91 35 -202 67 -112 32 -245 73 -297
92 -52 18 -164 49 -250 67 -161 35 -218 52 -208 62 18 18 454 -85 647 -152 72
-25 134 -43 137 -40 11 10 -8 24 -43 30 -26 5 -34 11 -30 22 3 9 6 22 6 31 0
12 11 13 58 9 189 -20 -226 68 -513 108 -330 46 -378 49 -1515 116 -175 10
-390 25 -527 36 l-73 6 0 129 0 129 58 0 c32 0 188 -11 347 -24 160 -14 371
-30 470 -36 99 -6 240 -18 313 -26 138 -14 209 -18 200 -9 -5 5 -50 14 -693
140 -214 42 -392 78 -395 81 -5 6 15 4 298 -21 174 -16 218 -18 210 -10 -9 9
-106 22 -488 65 -321 36 -378 45 -470 75 -191 61 -339 78 -477 56z m420 -122
c3 -11 19 -25 35 -31 29 -11 29 -13 15 -35 -10 -15 -13 -34 -9 -55 6 -29 5
-30 -11 -16 -27 23 -52 29 -74 18 -17 -9 -19 -7 -19 18 0 16 -9 41 -21 56
l-20 26 30 0 c20 0 34 7 41 20 14 26 26 25 33 -1z m-1814 -54 c11 -20 34 -42
50 -48 29 -12 30 -13 9 -26 -17 -11 -19 -19 -14 -54 l7 -42 -31 30 c-23 22
-33 26 -42 17 -19 -19 -28 -14 -28 16 0 15 -12 45 -26 66 l-26 38 31 -7 c27
-6 31 -3 37 19 3 14 7 26 9 26 2 0 12 -16 24 -35z m1168 -80 c30 -10 31 -11
13 -23 -14 -8 -20 -23 -20 -46 0 -34 0 -35 -27 -21 -22 12 -30 12 -52 0 -26
-13 -26 -13 -37 33 -6 26 -15 55 -19 64 -6 16 -3 17 24 12 29 -6 33 -4 44 25
l11 31 16 -32 c10 -22 26 -37 47 -43z m463 -62 l30 -6 -26 -24 c-17 -16 -24
-31 -21 -44 5 -17 2 -19 -16 -12 -12 4 -34 6 -49 5 -23 -1 -28 3 -28 22 0 13
-9 35 -21 50 l-20 26 30 0 c24 0 34 6 43 25 l11 25 19 -30 c11 -19 29 -33 48
-37z m-1128 -20 l31 -6 -23 -19 c-22 -18 -23 -37 -5 -82 7 -17 5 -17 -23 4
-22 16 -39 21 -59 17 -28 -5 -28 -5 -25 34 2 22 0 39 -6 39 -5 0 -54 -9 -107
-20 -53 -11 -107 -20 -119 -20 -40 1 5 16 102 36 82 16 93 20 88 37 -4 16 0
18 26 15 24 -4 32 0 41 19 l11 24 18 -36 c14 -26 27 -37 50 -42z m446 -79 l34
-11 -25 -16 c-23 -15 -25 -20 -17 -49 6 -17 8 -33 6 -35 -1 -2 -15 6 -30 18
-20 16 -30 19 -39 10 -17 -17 -27 -13 -27 9 0 11 -11 38 -25 60 l-25 39 30 -6
c27 -5 31 -2 41 26 l11 32 17 -33 c10 -22 27 -37 49 -44z m407 -24 c8 -16 26
-32 40 -36 23 -6 24 -8 10 -27 -8 -12 -15 -31 -15 -42 0 -17 -6 -20 -48 -20
-43 0 -48 2 -44 21 2 12 -7 33 -22 51 l-26 31 36 7 c24 4 38 13 41 26 7 25 10
24 28 -11z m-1045 -72 c12 -4 10 -9 -9 -25 -22 -18 -23 -23 -13 -51 l11 -32
-25 16 c-16 11 -35 14 -54 10 -29 -5 -30 -4 -30 34 0 21 -4 42 -10 45 -5 3
-15 15 -21 27 -10 19 -9 20 15 14 22 -5 28 -2 36 18 l9 25 38 -38 c21 -21 45
-40 53 -43z m1502 24 c3 -10 20 -25 37 -34 25 -11 29 -17 17 -21 -11 -4 -16
-19 -16 -47 l0 -40 -25 16 c-21 14 -31 15 -50 6 -24 -11 -25 -10 -25 20 0 17
-7 39 -16 49 -15 17 -14 19 20 33 20 8 36 20 36 25 0 18 17 12 22 -7z m-1117
-64 c6 -13 24 -30 42 -39 l32 -16 -21 -20 c-18 -18 -19 -25 -10 -53 11 -30 10
-31 -11 -23 -12 4 -39 8 -59 8 -37 0 -38 0 -32 33 5 28 2 38 -21 62 -24 25
-25 28 -7 24 25 -7 62 12 62 31 0 22 14 18 25 -7z m-604 -95 c34 -7 36 -14 8
-39 -16 -14 -19 -25 -14 -52 l6 -35 -26 21 c-21 17 -32 19 -51 11 -14 -5 -26
-9 -27 -9 -2 0 -1 17 1 38 3 33 -1 44 -28 71 l-33 32 39 -3 c34 -3 39 0 42 21
3 22 5 21 28 -13 16 -24 36 -39 55 -43z m1056 17 c13 -16 34 -30 44 -30 19 0
19 -1 -2 -29 -15 -21 -20 -37 -15 -56 l7 -26 -27 17 c-20 14 -32 15 -53 7 -26
-9 -27 -9 -23 19 2 15 -3 39 -11 52 -15 22 -14 24 9 35 13 6 27 18 30 26 8 21
12 19 41 -15z m-663 -82 c6 -13 26 -28 44 -34 33 -10 33 -10 12 -29 -16 -15
-19 -25 -14 -54 7 -36 7 -36 -14 -17 -18 15 -26 16 -52 8 l-30 -11 0 40 c0 30
-6 46 -26 64 l-27 25 36 0 c27 0 37 5 42 21 8 23 12 20 29 -13z m-164 -211
c15 -10 18 -17 10 -22 -8 -5 -10 -23 -6 -53 l6 -46 -25 24 c-21 20 -28 22 -50
12 -24 -11 -25 -10 -25 22 0 18 -9 45 -20 59 l-20 25 30 11 c17 5 33 17 36 26
5 13 10 10 24 -13 10 -16 28 -36 40 -45z m840 -98 c0 -3 13 -12 30 -19 28 -11
29 -14 15 -33 -8 -12 -15 -34 -15 -50 0 -25 -2 -28 -15 -17 -9 8 -29 10 -49 7
-28 -4 -34 -3 -29 9 7 19 -15 72 -36 84 -13 8 -11 9 11 10 27 0 58 23 58 43 1
12 30 -21 30 -34z m-1029 -56 l30 -6 -21 -21 c-22 -25 -25 -48 -9 -78 17 -31
3 -33 -23 -3 -21 23 -26 25 -52 15 -28 -10 -29 -10 -22 21 10 54 -6 69 -77 70
-61 1 -61 1 -32 14 17 8 51 14 76 15 43 0 47 3 54 28 l7 27 19 -38 c14 -27 28
-39 50 -44z m1506 2 l28 -7 -24 -17 c-19 -15 -22 -23 -16 -49 7 -36 0 -40 -26
-16 -16 15 -20 15 -41 0 -31 -22 -35 -20 -30 14 2 18 -2 40 -12 55 -16 24 -15
25 3 25 11 0 28 11 38 23 l18 24 17 -22 c10 -13 30 -26 45 -30z m-1110 -67 c9
-10 24 -18 35 -18 19 0 24 -15 8 -25 -5 -3 -10 -24 -10 -46 0 -37 -1 -39 -21
-28 -12 6 -34 9 -48 6 -25 -5 -27 -3 -23 22 3 19 -4 37 -23 59 l-27 32 32 0
c26 0 33 5 43 33 11 31 12 31 15 7 2 -14 11 -33 19 -42z m439 -60 c10 -10 27
-18 38 -18 19 -1 19 -2 -6 -21 -23 -17 -25 -23 -17 -51 11 -40 8 -43 -22 -19
-22 17 -27 17 -44 5 -28 -21 -34 -17 -28 19 4 25 -1 38 -20 59 l-25 27 31 3
c22 2 35 10 42 26 9 21 11 21 22 5 7 -10 20 -26 29 -35z m3319 -14 c110 -20
202 -38 204 -40 9 -8 -46 -4 -129 10 -47 8 -133 22 -192 31 -60 10 -116 24
-125 31 -22 17 -31 18 242 -32z m-2882 -5 c35 -29 37 -33 23 -48 -9 -10 -16
-32 -16 -49 0 -29 -2 -31 -25 -22 -16 6 -34 6 -50 0 -24 -9 -25 -8 -20 17 2
15 -2 37 -11 50 -14 22 -13 24 11 35 13 6 27 19 30 30 8 24 14 23 58 -13z
m440 -40 c33 -12 34 -12 16 -30 -11 -11 -19 -29 -19 -41 0 -20 -5 -23 -45 -23
-41 -1 -45 2 -45 24 0 14 -10 35 -22 48 l-21 23 26 0 c16 0 33 9 44 24 16 22
19 22 25 6 4 -10 22 -24 41 -31z m-1494 -57 c26 -15 28 -18 15 -37 -10 -15
-11 -30 -5 -53 11 -38 6 -40 -26 -11 -19 18 -25 20 -38 9 -19 -15 -17 -17 -41
45 -10 27 -20 53 -22 57 -2 5 8 8 21 8 19 0 28 8 37 33 l12 32 10 -33 c5 -20
20 -40 37 -50z m4178 52 c-3 -3 -12 -4 -19 -1 -8 3 -5 6 6 6 11 1 17 -2 13 -5z
m-3742 -120 c24 -6 25 -7 9 -25 -10 -12 -15 -29 -12 -49 5 -30 -5 -40 -18 -19
-4 6 -20 9 -39 6 -28 -5 -32 -3 -28 14 3 10 -4 34 -16 54 l-20 35 23 0 c15 0
27 9 35 27 l13 28 13 -32 c9 -21 23 -35 40 -39z m419 -35 c23 -11 24 -13 10
-34 -10 -15 -12 -33 -8 -50 l7 -27 -30 16 c-26 13 -33 13 -50 1 -18 -12 -19
-11 -19 21 0 21 -8 42 -24 59 l-23 25 30 0 c26 0 33 5 43 33 l11 32 14 -32 c8
-18 25 -38 39 -44z m390 16 c5 -18 15 -27 37 -32 28 -5 29 -7 13 -24 -11 -12
-15 -30 -12 -54 5 -40 2 -42 -24 -18 -18 16 -22 16 -47 2 l-27 -16 4 33 c3 26
-2 38 -23 59 l-28 25 36 0 c31 0 38 4 43 25 8 32 20 32 28 0z m-1436 -85 c26
-12 31 -19 26 -35 -4 -11 -7 -37 -8 -57 -1 -41 -7 -46 -26 -23 -7 8 -25 15
-39 15 -24 0 -30 7 -49 61 l-22 60 22 -3 c18 -2 24 4 32 31 l10 34 11 -34 c7
-23 22 -39 43 -49z m387 -37 c8 -32 21 -43 53 -43 22 0 22 -1 6 -25 -11 -18
-15 -37 -11 -62 l6 -36 -25 24 c-24 22 -25 23 -54 6 l-29 -17 6 35 c4 24 1 41
-9 53 -32 36 -33 45 -5 38 24 -6 27 -3 33 29 7 39 18 38 29 -2z m1297 -100
c26 -5 27 -7 13 -26 -8 -12 -15 -34 -15 -50 0 -24 -3 -26 -18 -18 -13 7 -27 6
-46 -5 -16 -8 -29 -14 -30 -14 -1 0 0 15 2 34 3 27 0 34 -17 39 -32 8 -27 37
7 37 22 0 32 7 42 28 l12 27 11 -23 c6 -13 23 -26 39 -29z m687 31 c57 -12 35
-29 -40 -33 -39 -1 -82 -6 -95 -11 -15 -6 -38 -4 -66 4 l-43 13 40 11 c73 20
152 26 204 16z m-1189 -173 c-17 -10 -45 -14 -75 -11 l-20 1 20 9 c27 12 95
12 75 1z"/>
<path d="M629 2749 c-11 -21 0 -38 23 -39 4 0 14 -13 23 -30 29 -57 115 -50
115 10 0 49 -38 80 -99 80 -41 0 -52 -4 -62 -21z"/>
<path d="M4400 1979 c-177 -8 -452 -24 -995 -59 -683 -44 -928 -53 -1305 -47
-352 6 -534 18 -770 52 -58 8 -134 15 -170 14 -61 0 -74 -4 -205 -72 -89 -46
-141 -78 -143 -89 -3 -13 3 -18 22 -18 15 0 30 -8 36 -19 16 -30 42 -33 111
-11 35 11 67 20 71 20 4 0 8 -17 10 -37 4 -47 -8 -45 353 -74 231 -19 350 -23
680 -23 406 1 511 6 1265 64 140 10 431 33 645 49 503 39 708 49 1100 56 376
7 402 5 964 -75 229 -33 428 -60 443 -60 24 0 46 15 36 25 -14 15 -487 84
-706 104 -57 5 -106 12 -109 14 -13 13 162 17 316 8 157 -10 209 -9 170 3 -14
4 -542 56 -569 56 -11 0 -11 3 -2 13 10 9 72 13 227 15 117 1 219 2 227 3 26
2 -221 39 -392 59 -339 38 -849 50 -1310 29z"/>
<path d="M850 1961 c-28 -15 -36 -25 -38 -52 -5 -64 5 -65 127 -13 61 26 111
50 111 55 0 13 -62 29 -114 29 -31 0 -65 -7 -86 -19z"/>
<path d="M5360 1574 c-8 -3 -29 -24 -47 -47 l-32 -42 162 -7 c89 -5 284 -19
432 -34 149 -14 304 -27 345 -29 71 -4 67 -3 -70 25 -80 17 -169 35 -198 41
-108 22 -40 19 128 -6 94 -14 195 -25 223 -24 l52 1 -30 13 c-63 28 -281 63
-545 89 -173 17 -397 28 -420 20z"/>
<path d="M4599 1537 c-53 -20 -62 -20 -136 -8 -69 11 -102 11 -234 -4 -84 -9
-162 -21 -173 -27 -12 -6 -41 -12 -66 -13 -167 -8 -394 -29 -441 -40 -77 -20
-292 -51 -558 -80 -542 -60 -952 -159 -988 -238 -7 -15 -31 -30 -77 -46 -37
-13 -65 -26 -62 -28 10 -11 249 -2 476 18 274 23 507 50 1005 119 198 27 486
65 640 85 309 39 305 38 355 71 66 42 345 59 760 46 162 -6 360 -7 440 -3 80
4 132 8 115 10 -97 5 -537 50 -541 54 -3 3 18 8 45 12 28 4 51 10 51 15 0 14
-130 22 -310 20 -200 -3 -214 -2 -185 10 18 8 16 9 -8 9 -20 1 -30 7 -34 21
-6 24 -3 24 -74 -3z"/>
<path d="M973 1360 c-27 -11 -43 -40 -43 -79 0 -30 1 -31 45 -31 l45 0 -44
-54 c-31 -39 -43 -61 -39 -75 8 -30 30 -27 155 19 114 42 157 49 91 16 -59
-30 -123 -70 -123 -77 0 -20 641 -52 717 -36 29 6 54 24 103 75 69 72 104 92
268 152 50 19 92 38 92 44 0 6 -79 7 -207 2 -241 -7 -576 6 -848 34 -104 11
-190 20 -190 19 0 0 -10 -4 -22 -9z m362 -106 c-18 -19 -97 -44 -134 -44 l-26
1 30 16 c35 19 102 41 128 42 17 1 17 0 2 -15z"/>
<path d="M2320 784 c-70 -16 -474 -38 -790 -43 -333 -5 -385 -8 -385 -21 0
-28 101 -71 199 -86 118 -18 193 -18 246 1 23 8 44 15 46 15 1 0 -9 -25 -23
-56 -14 -30 -22 -58 -19 -61 3 -3 38 -8 79 -11 l72 -4 313 128 c171 70 312
131 312 136 0 8 -21 9 -50 2z"/>
</g>
</svg>
